Coordinates
version=1
nRows=6
nColumns=46
inDegrees=yes

Units are S.I. units (second, meters, Newtons, ...)
Angles are in degrees.

endheader
time	pelvis_tilt	pelvis_list	pelvis_rotation	pelvis_tx	pelvis_ty	pelvis_tz	bb_angle	bb_tx	bb_ty	bb_tz	hip_flexion_r	hip_adduction_r	hip_rotation_r	knee_angle_r	knee_angle_r_beta	ankle_angle_r	subtalar_angle_r	mtp_angle_r	crank_angle_r	hip_flexion_l	hip_adduction_l	hip_rotation_l	knee_angle_l	knee_angle_l_beta	ankle_angle_l	subtalar_angle_l	mtp_angle_l	crank_angle_l	lumbar_extension	lumbar_bending	lumbar_rotation	arm_flex_r	arm_add_r	arm_rot_r	elbow_flex_r	pro_sup_r	wrist_flex_r	wrist_dev_r	arm_flex_l	arm_add_l	arm_rot_l	elbow_flex_l	pro_sup_l	wrist_flex_l	wrist_dev_l
      2.50500000	    -17.91731372	     -0.81343419	     -0.15147577	      0.14187036	      1.14698226	     -0.24427849	      0.00000000	      0.50000000	      0.00000000	      0.25000000	     65.31200604	     -7.32425845	     -5.03031299	     90.62894400	      1.58177347	      2.97231876	     -7.03117323	      0.00000000	      0.00000000	     74.90671445	     -4.22234401	      3.24494126	     69.33159309	      1.21006458	      0.87832973	     -4.98736862	      0.00000000	      0.00000000	    -51.40965817	      0.71534891	      4.32891911	     89.79297445	     -3.87388421	     24.07308016	     30.40464206	     24.54440192	      0.00000000	      0.00000000	     89.72317231	      3.34712782	     27.06521786	     30.31026725	     24.52779480	      0.00000000	      0.00000000
      2.51000000	    -17.96547093	     -0.86892074	     -0.22589507	      0.14189154	      1.14693641	     -0.24427642	      0.00000000	      0.50000000	      0.00000000	      0.25000000	     65.77551232	     -7.24783015	     -4.93294383	     91.31373410	      1.59372531	      3.22004836	     -6.88313392	      0.00000000	      0.00000000	     74.61139551	     -4.26294403	      3.34484940	     68.69505948	      1.19895497	      0.10448319	     -4.98710690	      0.00000000	      0.00000000	    -51.35466974	      0.65579533	      4.40764135	     89.79437245	     -4.46162128	     26.40642504	     30.52349549	     22.79953699	      0.00000000	      0.00000000	     89.71610596	      3.06518833	     27.75998249	     30.70993337	     23.03435922	      0.00000000	      0.00000000
      2.51500000	    -17.86575590	     -0.94542337	     -0.30347972	      0.14193315	      1.14727328	     -0.24427168	      0.00000000	      0.50000000	      0.00000000	      0.25000000	     66.09729618	     -7.15047006	     -4.85512514	     92.04875818	      1.60655390	      3.58746971	     -6.80265100	      0.00000000	      0.00000000	     74.08736282	     -4.31866059	      3.45917463	     67.95388591	      1.18601905	     -0.70727837	     -5.06272236	      0.00000000	      0.00000000	    -51.56068137	      0.61779388	      4.48859015	     89.79312148	     -4.68429773	     26.69028112	     31.25128452	     20.52756034	      0.00000000	      0.00000000	     89.70523742	      2.93065748	     27.70187008	     31.45627177	     20.92922695	      0.00000000	      0.00000000
      2.52000000	    -17.78891367	     -0.98079395	     -0.35385608	      0.14192784	      1.14761576	     -0.24426955	      0.00000000	      0.50000000	      0.00000000	      0.25000000	     66.49937907	     -7.11481100	     -4.75460031	     92.86256921	      1.62075758	      3.98425189	     -6.76361360	      0.00000000	      0.00000000	     73.50009316	     -4.32916314	      3.54559665	     67.09469588	      1.17102335	     -1.56425496	     -5.20067113	      0.00000000	      0.00000000	    -51.79846391	      0.59515362	      4.52649441	     89.78710059	     -4.14173192	     24.17889596	     30.80807718	     24.38229311	      0.00000000	      0.00000000	     89.69351375	      3.38514216	     25.28390198	     31.01080178	     24.70710636	      0.00000000	      0.00000000
      2.52500000	    -17.71865147	     -1.10943375	     -0.39563962	      0.14196216	      1.14778306	     -0.24429016	      0.00000000	      0.50000000	      0.00000000	      0.25000000	     66.93016328	     -7.04358749	     -4.73958367	     93.74045144	      1.63607952	      4.48996487	     -6.59955110	      0.00000000	      0.00000000	     72.89604771	     -4.36308905	      3.73537956	     66.20380252	      1.15547433	     -2.50478592	     -5.16476020	      0.00000000	      0.00000000	    -51.94354360	      0.60395534	      4.61798375	     89.78847852	     -4.96797812	     26.83066770	     31.83697684	     19.76256067	      0.00000000	      0.00000000	     89.67862638	      2.89407745	     26.68210052	     32.16524458	     20.49594748	      0.00000000	      0.00000000
      2.53000000	    -17.64038448	     -1.20726712	     -0.47246474	      0.14206591	      1.14803128	     -0.24425560	      0.00000000	      0.50000000	      0.00000000	      0.25000000	     67.41066052	     -6.96228476	     -4.67898689	     94.68028323	      1.65248268	      5.02100822	     -6.44895542	      0.00000000	      0.00000000	     72.19136807	     -4.44949270	      3.83259874	     65.23712796	      1.13860268	     -3.32941537	     -5.18205508	      0.00000000	      0.00000000	    -52.14436087	      0.59663055	      4.76209611	     89.78583747	     -5.06989623	     26.30175985	     31.99303236	     20.81566032	      0.00000000	      0.00000000	     89.66562729	      2.88791153	     26.21145256	     32.29346774	     21.48982813	      0.00000000	      0.00000000
